<?xml version="1.0" standalone="no"?>
<!DOCTYPE svg PUBLIC "-//W3C//DTD SVG 20010904//EN"
 "http://www.w3.org/TR/2001/REC-SVG-20010904/DTD/svg10.dtd">
<svg version="1.0" xmlns="http://www.w3.org/2000/svg"
 width="1024.000000pt" height="1024.000000pt" viewBox="0 0 1024.000000 1024.000000"
 preserveAspectRatio="xMidYMid meet">
<metadata>
Created by potrace 1.14, written by Peter Selinger 2001-2017
</metadata>
<g transform="translate(0.000000,1024.000000) scale(0.100000,-0.100000)"
fill="#000000" stroke="none">
<path d="M2399 10236 c-2 -2 -31 -6 -64 -10 -33 -3 -71 -8 -85 -11 -14 -3 -38
-8 -55 -10 -26 -4 -104 -23 -170 -41 -11 -3 -24 -6 -30 -7 -5 -2 -14 -5 -20
-8 -5 -4 -23 -10 -40 -14 -43 -12 -60 -18 -139 -55 -25 -11 -50 -20 -55 -20
-6 0 -11 -5 -11 -12 0 -6 -3 -9 -6 -6 -3 4 -33 -9 -66 -28 -33 -19 -64 -34
-69 -34 -5 0 -9 -4 -9 -10 0 -5 -5 -10 -11 -10 -12 0 -110 -65 -187 -124 -135
-104 -333 -317 -427 -461 -11 -16 -18 -33 -17 -37 1 -5 -1 -8 -6 -8 -4 0 -16
-17 -27 -37 -11 -21 -22 -40 -25 -43 -7 -6 -83 -162 -86 -175 -2 -5 -19 -52
-38 -104 -20 -52 -38 -104 -41 -115 -2 -12 -8 -36 -14 -53 -5 -18 -8 -33 -5
-33 3 0 0 -9 -6 -20 -6 -11 -13 -44 -16 -73 -3 -28 -8 -55 -10 -58 -16 -27
-19 -468 -19 -2869 0 -2362 3 -2832 20 -2860 2 -3 6 -26 10 -50 25 -171 125
-439 227 -605 10 -16 21 -38 24 -47 4 -10 10 -18 15 -18 5 0 9 -5 9 -11 0 -24
151 -211 250 -309 117 -115 135 -132 195 -176 22 -16 42 -32 45 -35 3 -3 20
-14 38 -24 17 -11 32 -23 32 -28 0 -4 4 -5 10 -2 5 3 10 1 10 -4 0 -6 4 -11 9
-11 4 0 37 -17 71 -38 35 -20 67 -36 72 -34 4 1 8 -2 8 -7 0 -14 234 -107 355
-140 118 -33 147 -39 183 -40 12 -1 22 -6 22 -11 0 -6 -209 -219 -465 -475
-302 -302 -472 -479 -486 -507 -27 -53 -27 -119 0 -191 16 -42 89 -104 136
-116 71 -18 901 -15 990 4 74 15 145 42 157 60 4 5 8 6 8 2 0 -32 192 147 683
637 312 311 567 563 567 561 0 -2 11 0 25 5 14 5 27 5 30 0 3 -5 18 -5 35 0
17 5 30 5 30 0 0 -4 16 -4 35 0 19 4 37 4 40 -1 3 -4 17 -4 30 1 15 6 27 6 30
0 3 -6 15 -6 30 0 15 6 27 6 30 0 3 -6 15 -6 30 0 15 6 27 6 30 0 3 -6 15 -6
30 0 13 5 27 5 30 1 3 -5 21 -5 40 -1 19 4 37 4 40 -1 3 -4 17 -4 30 1 15 6
27 6 30 0 3 -6 15 -6 30 0 15 6 27 6 30 0 3 -6 15 -6 30 0 15 6 27 6 30 0 3
-6 15 -6 30 0 13 5 27 5 30 1 3 -5 21 -5 40 -1 19 4 37 4 40 -1 3 -4 17 -4 30
1 15 6 27 6 30 0 3 -6 15 -6 30 0 15 6 27 6 30 0 3 -6 15 -6 30 0 15 6 27 6
30 0 3 -6 15 -6 30 0 13 5 27 5 30 1 3 -5 21 -5 40 -1 19 4 37 4 40 -1 3 -4
17 -4 30 1 15 6 27 6 30 -1 4 -5 11 -7 16 -3 13 8 107 9 115 1 3 -3 17 -2 30
3 14 6 26 6 29 0 3 -6 15 -6 30 0 15 6 27 6 30 0 3 -6 15 -6 30 0 15 6 27 6
30 0 3 -6 15 -6 30 0 15 6 27 6 30 0 3 -6 15 -6 30 0 15 6 27 6 30 0 3 -6 15
-6 30 0 15 6 27 6 30 0 3 -6 15 -6 30 0 15 6 27 6 30 0 3 -6 15 -6 30 0 15 6
27 6 30 0 3 -6 15 -6 30 0 15 6 27 6 30 0 3 -6 15 -6 30 0 15 6 27 6 30 0 3
-6 15 -6 30 0 15 6 27 6 30 0 3 -6 15 -6 30 0 15 6 27 6 30 0 3 -6 15 -6 30 0
15 6 27 6 30 0 3 -6 15 -6 30 0 15 6 27 6 30 0 3 -6 15 -6 30 0 15 6 27 6 30
0 3 -6 15 -6 30 0 15 6 27 6 30 0 3 -6 15 -6 29 0 13 5 27 6 30 3 8 -8 74 -8
82 0 3 3 17 2 30 -3 14 -6 24 -6 24 0 0 5 12 5 30 0 17 -5 30 -7 30 -4 0 2
249 -245 553 -548 303 -304 572 -569 597 -589 39 -32 140 -92 162 -98 4 -1 13
-3 20 -6 93 -31 138 -34 603 -34 408 -1 474 1 485 14 7 8 18 15 26 15 20 0 70
51 93 96 34 65 33 123 -3 204 -6 13 -224 237 -484 497 -341 342 -468 475 -457
479 9 4 19 4 22 0 3 -3 12 -1 19 4 6 6 16 10 20 9 16 -4 89 13 102 24 6 5 12
7 12 4 0 -3 15 -1 33 4 17 6 40 12 50 14 9 2 22 7 27 10 5 3 18 8 29 10 47 9
237 97 352 162 41 24 172 112 179 122 3 3 23 20 45 36 91 68 262 247 353 370
55 74 191 313 197 345 1 3 9 23 19 45 10 22 24 60 32 85 8 25 18 52 21 60 13
34 60 226 67 275 3 22 9 65 13 95 9 59 11 5476 3 5572 -3 32 -7 58 -10 58 -3
0 -7 12 -8 28 -1 15 -7 48 -13 73 -6 26 -12 53 -13 60 -6 31 -28 106 -41 142
-8 20 -13 37 -10 37 2 0 -5 21 -17 48 -11 26 -29 67 -40 92 -65 149 -151 291
-256 425 -81 102 -298 315 -321 315 -5 0 -11 7 -15 15 -3 8 -12 15 -21 15 -8
0 -15 3 -15 8 0 4 -21 20 -48 37 -26 16 -49 32 -52 35 -3 4 -12 10 -20 13 -8
4 -37 21 -65 37 -83 50 -291 143 -347 156 -10 2 -27 6 -37 8 -11 3 -29 10 -40
16 -12 6 -21 9 -21 6 0 -2 -19 2 -42 9 -24 6 -49 10 -55 8 -7 -3 -13 -1 -13 4
0 5 -10 10 -22 10 -29 2 -85 11 -123 20 -31 7 -5518 16 -5526 9z m174 -1914
c11 6 17 5 17 -1 0 -5 11 -6 28 -2 15 4 39 4 55 0 15 -4 27 -4 27 1 0 6 10 6
25 0 16 -6 25 -6 25 0 0 6 9 6 23 1 14 -5 30 -5 40 0 11 7 17 6 17 0 0 -5 11
-6 28 -2 15 4 39 4 55 0 15 -4 27 -4 27 1 0 6 10 6 25 0 17 -6 25 -6 25 1 0 6
4 7 10 4 15 -9 80 -12 80 -3 0 4 11 3 25 -2 15 -6 26 -6 30 0 4 6 13 7 23 2
17 -9 70 -7 79 2 3 3 16 1 29 -4 15 -6 26 -6 30 1 4 8 9 8 17 0 7 -7 16 -7 29
0 12 6 18 6 18 0 0 -7 8 -7 23 -2 12 5 31 5 42 1 11 -4 25 -3 32 2 7 5 14 5
18 -2 4 -7 12 -7 26 0 12 7 19 7 19 1 0 -7 8 -7 23 -2 12 5 31 5 42 1 11 -4
25 -3 32 2 7 5 14 5 18 -2 4 -7 12 -7 26 0 12 7 19 7 19 1 0 -7 8 -7 23 -2 12
5 31 5 42 1 11 -4 25 -3 32 2 7 6 14 5 18 -2 3 -6 11 -8 16 -4 15 9 69 11 75
3 2 -4 16 -4 32 0 15 4 39 4 55 0 16 -5 27 -4 27 2 0 7 6 7 17 0 11 -6 24 -6
35 0 10 6 19 5 23 -1 4 -7 12 -7 25 0 13 7 21 7 25 0 4 -7 12 -7 24 0 10 5 21
6 25 3 4 -4 26 -8 49 -9 23 -1 53 -5 67 -8 14 -4 38 -9 53 -11 16 -3 39 -12
51 -20 12 -8 26 -12 29 -8 4 3 7 0 7 -7 0 -7 3 -11 6 -7 18 17 234 -158 234
-190 0 -7 4 -13 8 -13 8 0 53 -73 53 -87 0 -5 8 -16 17 -27 9 -10 16 -21 15
-25 -1 -3 3 -24 9 -46 16 -56 17 -63 23 -124 3 -30 7 -57 10 -59 2 -3 0 -13
-6 -23 -7 -13 -6 -19 1 -19 8 0 8 -6 0 -20 -8 -14 -8 -20 0 -20 8 0 8 -6 0
-20 -8 -14 -8 -20 0 -20 8 0 8 -6 0 -20 -8 -14 -8 -20 0 -20 8 0 8 -6 0 -20
-8 -14 -8 -20 0 -20 8 0 8 -6 0 -20 -8 -14 -8 -20 0 -20 8 0 8 -6 0 -20 -8
-14 -8 -20 0 -20 8 0 8 -6 0 -20 -7 -14 -8 -26 0 -39 6 -12 6 -22 1 -26 -6 -3
-6 -17 -1 -35 5 -18 5 -32 -1 -35 -5 -4 -5 -14 1 -25 7 -13 7 -21 0 -25 -7 -4
-7 -12 0 -25 7 -13 7 -21 0 -25 -7 -4 -7 -12 -1 -23 6 -10 6 -23 0 -34 -7 -12
-6 -18 1 -18 7 0 8 -6 1 -17 -6 -11 -6 -24 0 -35 6 -10 5 -19 -1 -23 -6 -4 -6
-15 0 -30 6 -16 6 -25 0 -25 -6 0 -6 -9 0 -25 6 -16 6 -25 0 -25 -6 0 -6 -9 0
-25 6 -15 6 -25 0 -25 -5 0 -5 -12 0 -30 5 -18 5 -32 -1 -35 -5 -4 -4 -15 3
-28 6 -12 10 -24 9 -27 -2 -3 -7 -13 -12 -22 -7 -12 -6 -18 1 -18 8 0 8 -6 0
-20 -8 -14 -8 -20 0 -20 8 0 8 -6 0 -20 -8 -14 -8 -20 0 -20 8 0 8 -6 0 -20
-8 -14 -8 -20 0 -20 8 0 8 -6 0 -20 -8 -14 -8 -20 0 -20 8 0 8 -6 0 -20 -8
-14 -8 -20 0 -20 8 0 8 -6 0 -20 -8 -14 -8 -20 0 -20 7 0 8 -6 1 -17 -5 -10
-10 -20 -12 -23 -1 -3 3 -15 9 -27 8 -14 8 -24 2 -28 -6 -3 -6 -15 0 -30 6
-15 6 -27 -1 -30 -6 -4 -6 -13 0 -23 6 -10 6 -23 0 -34 -6 -10 -5 -19 1 -23 6
-4 6 -15 0 -30 -6 -16 -6 -25 1 -25 6 0 6 -7 -1 -20 -7 -13 -7 -20 -1 -20 7 0
7 -9 1 -25 -6 -15 -6 -26 0 -30 6 -4 7 -13 1 -24 -6 -10 -6 -23 -1 -31 5 -8 5
-21 -1 -31 -6 -11 -5 -20 1 -24 6 -4 6 -15 0 -30 -6 -15 -6 -25 0 -25 5 0 5
-12 0 -30 -5 -19 -5 -30 1 -30 6 0 6 -7 -1 -19 -7 -14 -7 -22 0 -26 6 -4 8
-10 5 -14 -2 -5 -7 -37 -10 -72 -6 -73 -30 -163 -51 -196 -8 -13 -12 -23 -9
-23 16 0 -76 -124 -134 -180 -68 -66 -200 -143 -266 -156 -5 -1 -12 -3 -15 -4
-34 -13 -236 -24 -330 -19 -8 1 -44 1 -80 0 -36 0 -72 0 -80 0 -8 1 -44 1 -80
0 -36 0 -72 0 -80 0 -8 1 -44 1 -80 0 -36 0 -72 0 -80 0 -8 1 -44 1 -80 0 -36
0 -72 0 -80 0 -8 1 -44 1 -80 0 -36 0 -72 0 -80 0 -8 1 -44 1 -80 0 -36 0 -72
0 -80 0 -8 1 -44 1 -80 0 -36 0 -72 0 -80 0 -8 1 -44 1 -80 0 -36 0 -72 0 -80
0 -8 0 -49 0 -90 0 -93 -2 -166 5 -217 18 -21 6 -41 11 -45 11 -4 0 -44 19
-89 42 -57 28 -102 61 -153 112 -63 63 -147 176 -129 176 3 0 -2 9 -13 21 -10
12 -17 22 -15 23 2 0 -3 21 -10 46 -17 60 -18 68 -24 120 -2 25 -6 54 -8 65
-3 11 -1 27 4 36 4 8 4 21 -1 29 -4 7 -4 24 0 36 6 14 5 26 0 29 -5 3 -5 18 0
34 4 15 4 34 0 41 -5 7 -4 24 0 36 6 14 5 26 0 29 -6 4 -7 13 -1 24 6 10 6 23
1 31 -5 8 -5 21 0 30 5 9 5 22 0 30 -4 7 -4 24 0 36 6 14 5 26 0 29 -5 3 -5
18 0 34 4 15 4 34 0 41 -5 7 -4 24 0 36 6 14 5 26 -1 29 -5 4 -7 11 -3 16 8
14 10 99 2 99 -4 0 -3 14 2 30 5 17 5 30 0 30 -5 0 -5 13 0 30 5 17 5 30 0 30
-5 0 -5 13 0 30 5 17 5 30 0 30 -5 0 -5 13 0 30 5 17 5 30 0 30 -5 0 -5 13 0
30 5 17 5 30 0 30 -5 0 -5 13 0 30 5 17 5 30 0 30 -5 0 -5 13 0 30 5 17 5 30
0 30 -5 0 -5 13 0 30 5 17 5 30 0 30 -5 0 -5 13 0 30 5 17 5 30 0 30 -5 0 -5
13 0 30 5 17 5 30 0 30 -5 0 -5 13 0 29 4 15 4 34 0 42 -5 7 -4 21 1 30 6 11
5 20 -1 24 -5 3 -6 15 0 29 4 12 4 29 0 36 -5 8 -4 22 1 31 6 11 5 20 -1 24
-5 3 -6 15 -1 28 5 12 5 34 0 49 -4 16 -4 28 1 28 5 0 5 13 0 30 -5 17 -5 30
0 30 5 0 5 13 0 29 -4 15 -4 34 0 42 5 7 5 20 0 29 -5 9 -5 22 0 30 5 8 5 21
0 31 -5 9 -7 18 -5 21 2 2 7 35 9 73 6 75 6 76 25 145 38 134 175 306 292 364
30 15 61 31 69 35 25 14 92 33 129 38 20 3 42 9 50 13 8 4 26 4 41 0 15 -4 34
-3 43 2z m3559 -1 c10 6 19 5 23 -1 4 -7 12 -7 25 0 10 6 21 7 23 3 6 -9 59
-9 73 0 6 3 16 2 24 -3 9 -5 19 -5 26 1 8 6 14 7 18 0 4 -6 18 -6 35 -1 15 4
34 4 42 0 7 -5 20 -5 28 0 8 4 25 4 38 -1 14 -5 23 -5 23 1 0 6 9 6 23 1 13
-5 30 -5 39 0 10 6 19 6 23 0 4 -7 15 -7 30 -1 14 5 25 6 25 2 0 -4 11 -7 25
-7 14 0 25 2 25 5 0 7 78 3 96 -4 7 -3 16 -1 19 5 4 6 13 6 23 0 10 -6 23 -6
34 0 10 6 19 5 23 -1 4 -6 15 -6 30 0 16 6 25 6 25 0 0 -5 9 -6 22 -1 13 4 35
5 50 0 16 -4 30 -3 34 2 3 6 12 6 22 0 9 -5 23 -6 32 -1 9 5 22 5 30 0 8 -5
21 -5 31 1 11 6 20 5 24 -1 4 -7 12 -7 25 0 11 6 21 6 24 1 4 -5 18 -6 34 -2
15 4 39 4 55 0 16 -5 27 -4 27 2 0 7 6 7 17 0 11 -6 24 -6 35 0 10 6 19 5 23
-1 4 -7 12 -7 25 0 10 6 21 7 23 3 6 -9 59 -9 73 0 6 3 16 2 24 -3 9 -5 19 -5
26 1 8 6 14 7 18 0 4 -6 18 -6 35 -1 16 4 32 6 35 3 3 -3 27 -7 53 -9 53 -4
60 -6 118 -22 22 -6 45 -12 50 -12 6 -1 18 -9 28 -17 9 -9 17 -13 17 -10 0 18
113 -66 176 -129 51 -51 84 -96 112 -153 23 -45 41 -82 41 -84 -1 -1 4 -22 11
-47 7 -25 13 -71 15 -103 1 -32 5 -60 8 -64 4 -3 2 -13 -3 -22 -5 -10 -5 -23
0 -31 4 -7 4 -24 0 -36 -6 -14 -5 -26 0 -29 5 -3 5 -18 0 -34 -4 -15 -4 -34 0
-41 5 -7 4 -24 0 -36 -6 -14 -5 -26 0 -29 6 -4 7 -13 1 -24 -6 -10 -6 -23 -1
-31 5 -8 5 -21 0 -30 -5 -9 -5 -22 0 -30 4 -7 4 -24 0 -36 -6 -14 -5 -26 0
-29 5 -3 5 -18 0 -34 -4 -15 -4 -34 0 -41 5 -7 4 -24 0 -36 -6 -14 -5 -26 1
-29 5 -4 7 -11 3 -16 -8 -13 -11 -99 -4 -99 6 0 3 -89 -4 -106 -2 -6 0 -17 4
-24 5 -8 5 -21 0 -30 -5 -9 -5 -22 0 -30 5 -8 5 -21 0 -30 -5 -9 -5 -22 0 -30
5 -8 5 -21 0 -30 -5 -9 -5 -22 0 -30 5 -8 5 -21 0 -30 -5 -9 -5 -22 0 -30 5
-8 5 -21 0 -30 -5 -9 -5 -22 0 -30 5 -8 5 -21 0 -30 -5 -9 -5 -22 0 -30 5 -8
5 -21 0 -30 -5 -9 -5 -22 0 -30 5 -8 5 -21 0 -30 -5 -9 -5 -22 0 -30 5 -8 5
-21 0 -30 -5 -9 -5 -22 0 -30 5 -8 5 -21 0 -30 -5 -9 -5 -22 0 -30 5 -8 5 -21
0 -30 -5 -9 -5 -22 0 -30 5 -8 5 -21 0 -30 -5 -9 -5 -22 0 -30 5 -8 5 -21 0
-30 -5 -9 -5 -22 0 -30 5 -8 5 -21 0 -30 -5 -9 -5 -22 0 -30 5 -8 5 -21 0 -30
-5 -9 -5 -22 0 -29 4 -8 4 -27 0 -42 -5 -16 -5 -29 0 -29 5 0 5 -13 0 -30 -5
-16 -6 -30 -2 -30 7 0 6 -23 -3 -125 -6 -75 -24 -146 -48 -190 -6 -11 -11 -23
-12 -26 -1 -21 -94 -145 -141 -188 -50 -46 -168 -124 -169 -111 -1 3 -12 -2
-25 -11 -39 -25 -180 -53 -250 -50 -8 0 -49 0 -90 0 -84 -1 -87 -1 -115 1 -11
1 -68 1 -127 0 -58 0 -110 0 -115 1 -4 1 -12 1 -18 0 -12 -2 -450 -2 -462 0
-4 1 -12 1 -18 0 -5 -1 -111 -1 -235 -1 -271 1 -229 1 -325 1 -76 -1 -183 5
-215 12 -8 2 -33 9 -55 15 -22 6 -43 10 -46 9 -4 -1 -16 7 -28 17 -12 11 -21
16 -21 13 0 -17 -112 64 -172 125 -57 57 -126 155 -127 181 0 4 -7 20 -16 36
-19 38 -35 105 -39 162 -2 25 -6 51 -10 58 -4 6 -2 11 4 11 7 0 8 6 0 19 -6
13 -7 22 0 26 6 4 6 15 0 30 -6 16 -6 25 0 25 6 0 6 9 0 25 -6 16 -6 25 0 25
6 0 6 9 0 25 -6 15 -6 25 0 25 5 0 5 12 0 30 -5 18 -5 32 1 35 5 4 5 13 0 23
-5 9 -10 19 -12 22 -1 3 3 15 10 28 8 15 8 22 1 22 -8 0 -8 6 0 20 8 14 8 20
0 20 -8 0 -8 6 0 20 8 14 8 20 0 20 -8 0 -8 6 0 20 8 14 8 20 0 20 -8 0 -8 6
0 20 8 14 8 20 0 20 -8 0 -8 6 0 20 8 14 8 20 0 20 -8 0 -8 6 0 20 8 14 8 20
0 20 -7 0 -7 7 1 23 7 12 12 22 12 22 0 0 -5 10 -11 22 -8 14 -8 24 -2 28 6 3
6 15 0 30 -6 15 -6 27 1 30 6 4 6 13 0 23 -6 10 -6 23 0 34 6 10 5 19 -1 23
-6 4 -6 15 0 30 6 16 6 25 -1 25 -6 0 -6 7 1 20 7 13 7 20 1 20 -7 0 -7 9 -1
25 6 15 6 26 0 30 -6 4 -7 13 -1 24 6 10 6 23 1 31 -5 8 -5 21 1 31 6 11 5 20
-1 24 -6 4 -6 15 0 30 6 15 6 25 0 25 -5 0 -5 12 0 30 5 19 5 30 -1 30 -6 0
-6 7 1 19 6 12 6 22 1 26 -10 5 -7 37 4 55 3 6 1 10 -5 10 -8 0 -8 6 0 20 8
14 8 20 0 20 -8 0 -8 6 0 20 8 14 8 20 0 20 -8 0 -8 6 0 20 8 14 8 20 0 20 -8
0 -8 6 0 20 8 14 8 20 0 20 -8 0 -8 6 0 20 8 14 8 20 0 20 -8 0 -8 6 0 20 8
14 8 20 0 20 -8 0 -8 6 0 20 7 14 8 26 0 39 -6 12 -6 22 -1 26 6 3 6 17 1 35
-5 18 -5 32 1 35 5 4 5 14 -1 25 -7 13 -7 21 0 25 7 4 7 12 0 25 -7 13 -7 21
0 25 7 4 7 12 1 23 -6 10 -6 23 0 34 7 12 6 18 -1 18 -6 0 -9 3 -6 8 2 4 7 37
10 72 8 98 35 197 62 230 7 8 13 18 13 23 0 4 17 32 36 62 42 63 137 153 192
181 21 10 40 21 43 24 10 11 126 51 165 58 22 3 59 6 82 6 24 1 43 5 43 9 0 4
8 4 17 -2 11 -6 24 -6 35 0z m-3508 -4487 c22 -1 52 -5 66 -8 14 -4 37 -8 52
-11 63 -12 192 -90 258 -156 36 -36 71 -73 78 -82 20 -27 72 -117 67 -117 -3
0 4 -18 15 -40 11 -22 18 -40 15 -40 -4 0 -3 -5 1 -12 8 -12 11 -31 18 -105 2
-23 7 -47 11 -52 3 -6 3 -11 -2 -11 -4 0 -8 -21 -9 -48 -1 -61 -11 -114 -28
-156 -8 -19 -12 -37 -8 -40 3 -3 0 -6 -6 -6 -7 0 -12 -9 -12 -19 0 -11 -3 -21
-7 -23 -5 -1 -17 -21 -28 -43 -11 -21 -54 -73 -95 -115 -93 -94 -185 -145
-320 -177 -8 -2 -38 -5 -67 -7 -29 -3 -57 -7 -63 -11 -5 -3 -10 -3 -10 2 0 4
-21 9 -48 10 -26 0 -60 4 -77 8 -16 4 -37 8 -45 10 -8 2 -16 4 -17 5 -2 2 -6
3 -10 4 -5 1 -25 10 -47 19 -21 9 -40 17 -42 17 -2 0 -30 18 -62 40 -53 37
-113 95 -166 161 -24 31 -82 155 -91 194 -4 17 -9 37 -12 45 -3 8 -6 36 -8 61
-1 25 -5 51 -9 57 -4 7 -4 12 1 12 4 0 8 19 9 43 1 72 20 162 45 207 4 8 20
39 35 69 58 117 230 254 364 292 65 18 70 19 129 24 29 2 56 7 59 9 2 3 9 3
15 -1 5 -3 28 -7 51 -9z m5199 -8 c20 -5 40 -12 43 -17 3 -5 9 -7 14 -4 4 3
45 -14 91 -37 190 -96 333 -305 343 -504 1 -22 6 -45 10 -52 4 -7 4 -17 0 -24
-4 -6 -9 -32 -10 -57 -3 -41 -9 -76 -14 -91 -1 -3 -3 -9 -4 -15 -14 -71 -90
-199 -162 -272 -61 -61 -164 -134 -191 -135 -4 0 -17 -5 -28 -11 -11 -6 -22
-12 -25 -12 -3 -1 -25 -7 -50 -15 -63 -18 -232 -20 -305 -3 -33 8 -97 32 -143
54 -182 88 -332 301 -345 490 -3 31 -7 62 -11 68 -4 6 -4 16 -1 22 4 5 9 34
11 62 5 56 29 149 47 182 6 11 11 23 12 26 1 22 96 147 143 189 51 46 156 116
164 109 2 -2 17 5 33 14 68 39 265 56 378 33z"/>
</g>
</svg>
