<?xml version="1.0" encoding="UTF-8"?>
<svg id="Layer_1" data-name="Layer 1" xmlns="http://www.w3.org/2000/svg" xmlns:xlink="http://www.w3.org/1999/xlink" viewBox="0 0 177.01 107.39">
  <defs>
    <style>
      .cls-1 {
        fill: none;
      }

      .cls-2 {
        clip-path: url(#clippath);
      }

      .cls-3, .cls-4 {
        fill: #fff;
      }

      .cls-5 {
        fill: #384152;
      }

      .cls-4 {
        font-family: Arial-BoldMT, Arial;
        font-size: 12px;
      }

      .cls-6 {
        fill: #f1eef7;
      }

      .cls-6, .cls-7, .cls-8, .cls-9 {
        stroke: #ababab;
        stroke-miterlimit: 10;
      }

      .cls-7 {
        fill: #bdc9e0;
      }

      .cls-8 {
        fill: #0571b0;
      }

      .cls-9 {
        fill: #74a9ce;
      }
    </style>
    <clipPath id="clippath">
      <rect class="cls-1" y="60.13" width="231.36" height="46.05"/>
    </clipPath>
  </defs>
  <path class="cls-5" d="M249.61,135H-58.43V-29.13H249.61V135Z"/>
  <g class="cls-2">
    <circle class="cls-6" cx="25.03" cy="60.84" r="140"/>
    <circle class="cls-7" cx="25.03" cy="60.84" r="100"/>
    <circle class="cls-9" cx="25.03" cy="60.84" r="60"/>
    <circle class="cls-8" cx="25.03" cy="60.84" r="20"/>
  </g>
  <text class="cls-4" transform="translate(17.36 55.62)"><tspan x="0" y="0">10</tspan></text>
  <text class="cls-4" transform="translate(52.96 55.62)"><tspan x="0" y="0">20</tspan></text>
  <text class="cls-4" transform="translate(91.91 55.62)"><tspan x="0" y="0">30</tspan></text>
  <text class="cls-4" transform="translate(134.26 55.77)"><tspan x="0" y="0">40 min</tspan></text>
  <g>
    <path class="cls-3" d="M12.52,12.75h-2.74l-1.09-2.84H3.7l-1.03,2.84H0L4.86,.24h2.66l4.99,12.51ZM7.88,7.8l-1.72-4.64-1.68,4.64h3.4Z"/>
    <path class="cls-3" d="M16.12,12.75h-2.39V3.69h2.22v1.29c.38-.61,.72-1.01,1.03-1.2,.3-.19,.65-.29,1.03-.29,.54,0,1.07,.15,1.57,.45l-.74,2.09c-.4-.26-.78-.39-1.12-.39s-.62,.09-.85,.28c-.23,.19-.42,.52-.55,1-.13,.48-.2,1.5-.2,3.04v2.8Z"/>
    <path class="cls-3" d="M25.85,9.87l2.38,.4c-.31,.88-.79,1.54-1.45,2-.66,.46-1.49,.69-2.48,.69-1.57,0-2.73-.52-3.49-1.54-.6-.83-.89-1.87-.89-3.12,0-1.5,.39-2.68,1.17-3.53,.78-.85,1.77-1.28,2.97-1.28,1.34,0,2.4,.45,3.18,1.34,.78,.89,1.15,2.25,1.11,4.09h-5.99c.02,.71,.21,1.26,.58,1.66s.83,.59,1.38,.59c.37,0,.69-.1,.94-.31,.26-.2,.45-.53,.58-.99Zm.14-2.42c-.02-.69-.2-1.22-.54-1.58-.34-.36-.75-.54-1.24-.54-.52,0-.95,.19-1.29,.57-.34,.38-.51,.9-.5,1.55h3.57Z"/>
    <path class="cls-3" d="M32.09,6.45l-2.17-.39c.24-.88,.66-1.52,1.26-1.95,.6-.42,1.48-.63,2.65-.63,1.07,0,1.86,.13,2.38,.38s.89,.57,1.1,.96c.21,.39,.32,1.11,.32,2.15l-.03,2.8c0,.8,.04,1.38,.12,1.76,.08,.38,.22,.78,.43,1.22h-2.36c-.06-.16-.14-.4-.23-.71-.04-.14-.07-.24-.08-.28-.41,.4-.85,.7-1.31,.9s-.96,.3-1.49,.3c-.93,0-1.66-.25-2.2-.76-.54-.51-.8-1.15-.8-1.92,0-.51,.12-.97,.37-1.37s.59-.71,1.02-.92,1.07-.4,1.9-.56c1.12-.21,1.89-.41,2.32-.59v-.24c0-.46-.11-.79-.34-.99-.23-.2-.66-.29-1.28-.29-.43,0-.76,.08-1,.25s-.43,.46-.58,.88Zm3.2,1.95c-.31,.1-.79,.22-1.45,.37-.66,.14-1.1,.28-1.3,.42-.31,.22-.47,.5-.47,.85s.12,.63,.37,.87,.57,.37,.95,.37c.43,0,.84-.14,1.23-.43,.29-.22,.48-.48,.57-.79,.06-.21,.09-.59,.09-1.17v-.48Z"/>
    <path class="cls-3" d="M55.45,12.75h-2.74l-1.09-2.84h-4.99l-1.03,2.84h-2.67L47.79,.24h2.66l4.99,12.51Zm-4.64-4.95l-1.72-4.64-1.68,4.64h3.4Z"/>
    <path class="cls-3" d="M64.65,6.37l-2.36,.43c-.08-.47-.26-.83-.54-1.07-.28-.24-.65-.36-1.09-.36-.6,0-1.07,.21-1.42,.62-.35,.41-.53,1.1-.53,2.07,0,1.08,.18,1.83,.54,2.28s.84,.67,1.45,.67c.45,0,.83-.13,1.11-.39,.29-.26,.49-.7,.61-1.34l2.35,.4c-.24,1.08-.71,1.9-1.4,2.45-.69,.55-1.62,.83-2.78,.83-1.32,0-2.38-.42-3.16-1.25s-1.18-1.99-1.18-3.47,.39-2.66,1.18-3.5c.79-.83,1.85-1.25,3.2-1.25,1.1,0,1.97,.24,2.62,.71s1.12,1.2,1.4,2.17Z"/>
    <path class="cls-3" d="M74.34,6.37l-2.36,.43c-.08-.47-.26-.83-.54-1.07-.28-.24-.65-.36-1.09-.36-.6,0-1.07,.21-1.42,.62-.35,.41-.53,1.1-.53,2.07,0,1.08,.18,1.83,.54,2.28s.84,.67,1.45,.67c.45,0,.83-.13,1.11-.39,.29-.26,.49-.7,.61-1.34l2.35,.4c-.24,1.08-.71,1.9-1.4,2.45-.69,.55-1.62,.83-2.78,.83-1.32,0-2.38-.42-3.16-1.25s-1.18-1.99-1.18-3.47,.39-2.66,1.18-3.5c.79-.83,1.85-1.25,3.2-1.25,1.1,0,1.97,.24,2.62,.71s1.12,1.2,1.4,2.17Z"/>
    <path class="cls-3" d="M81.38,9.87l2.38,.4c-.31,.88-.79,1.54-1.45,2-.66,.46-1.49,.69-2.48,.69-1.57,0-2.73-.52-3.49-1.54-.6-.83-.89-1.87-.89-3.12,0-1.5,.39-2.68,1.17-3.53,.78-.85,1.77-1.28,2.97-1.28,1.34,0,2.4,.45,3.18,1.34,.78,.89,1.15,2.25,1.11,4.09h-5.99c.02,.71,.21,1.26,.58,1.66,.37,.4,.83,.59,1.38,.59,.37,0,.69-.1,.94-.31,.25-.2,.45-.53,.58-.99Zm.14-2.42c-.02-.69-.2-1.22-.54-1.58-.34-.36-.75-.54-1.24-.54-.52,0-.95,.19-1.29,.57-.34,.38-.51,.9-.5,1.55h3.57Z"/>
    <path class="cls-3" d="M85,10.16l2.4-.37c.1,.47,.31,.82,.62,1.06,.31,.24,.75,.36,1.31,.36,.62,0,1.08-.11,1.4-.34,.21-.16,.31-.37,.31-.64,0-.18-.06-.33-.17-.45-.12-.11-.39-.22-.8-.32-1.93-.43-3.15-.82-3.67-1.17-.71-.49-1.07-1.17-1.07-2.04,0-.79,.31-1.45,.93-1.98,.62-.53,1.58-.8,2.88-.8s2.16,.2,2.76,.61c.6,.4,1.02,1,1.24,1.79l-2.25,.42c-.1-.35-.28-.62-.55-.81s-.65-.28-1.15-.28c-.63,0-1.08,.09-1.35,.26-.18,.12-.27,.29-.27,.49,0,.17,.08,.32,.24,.44,.22,.16,.96,.38,2.23,.67s2.16,.65,2.67,1.07c.5,.43,.75,1.02,.75,1.78,0,.83-.35,1.54-1.04,2.14s-1.72,.9-3.07,.9c-1.23,0-2.2-.25-2.92-.75-.72-.5-1.19-1.18-1.41-2.04Z"/>
    <path class="cls-3" d="M94.69,10.16l2.4-.37c.1,.47,.31,.82,.62,1.06,.31,.24,.75,.36,1.31,.36,.62,0,1.08-.11,1.4-.34,.21-.16,.31-.37,.31-.64,0-.18-.06-.33-.17-.45-.12-.11-.39-.22-.8-.32-1.93-.43-3.15-.82-3.67-1.17-.71-.49-1.07-1.17-1.07-2.04,0-.79,.31-1.45,.93-1.98,.62-.53,1.58-.8,2.88-.8s2.16,.2,2.76,.61c.6,.4,1.02,1,1.24,1.79l-2.25,.42c-.1-.35-.28-.62-.55-.81s-.65-.28-1.15-.28c-.63,0-1.08,.09-1.35,.26-.18,.12-.27,.29-.27,.49,0,.17,.08,.32,.24,.44,.22,.16,.96,.38,2.23,.67s2.16,.65,2.67,1.07c.5,.43,.75,1.02,.75,1.78,0,.83-.35,1.54-1.04,2.14s-1.72,.9-3.07,.9c-1.23,0-2.2-.25-2.92-.75-.72-.5-1.19-1.18-1.41-2.04Z"/>
    <path class="cls-3" d="M105.22,2.46V.24h2.39V2.46h-2.39Zm0,10.29V3.69h2.39V12.75h-2.39Z"/>
    <path class="cls-3" d="M109.96,12.75V.24h2.39V4.74c.74-.84,1.61-1.26,2.62-1.26,1.1,0,2.01,.4,2.73,1.2,.72,.8,1.08,1.95,1.08,3.44s-.37,2.74-1.1,3.58c-.74,.84-1.63,1.25-2.68,1.25-.52,0-1.03-.13-1.53-.39s-.93-.64-1.3-1.15v1.33h-2.22Zm2.37-4.73c0,.94,.15,1.63,.44,2.08,.41,.64,.96,.96,1.65,.96,.53,0,.98-.23,1.35-.68,.37-.45,.56-1.17,.56-2.14,0-1.04-.19-1.78-.56-2.24s-.85-.69-1.44-.69-1.05,.22-1.43,.67-.57,1.12-.57,2.04Z"/>
    <path class="cls-3" d="M120.7,12.75V.24h2.39V12.75h-2.39Z"/>
    <path class="cls-3" d="M130.77,9.87l2.38,.4c-.31,.88-.79,1.54-1.45,2-.66,.46-1.49,.69-2.48,.69-1.57,0-2.73-.52-3.49-1.54-.6-.83-.89-1.87-.89-3.12,0-1.5,.39-2.68,1.17-3.53,.78-.85,1.77-1.28,2.97-1.28,1.34,0,2.4,.45,3.18,1.34,.78,.89,1.15,2.25,1.11,4.09h-5.99c.02,.71,.21,1.26,.58,1.66,.37,.4,.83,.59,1.38,.59,.37,0,.69-.1,.94-.31,.25-.2,.45-.53,.58-.99Zm.14-2.42c-.02-.69-.2-1.22-.54-1.58-.34-.36-.75-.54-1.24-.54-.52,0-.95,.19-1.29,.57-.34,.38-.51,.9-.5,1.55h3.57Z"/>
    <path class="cls-3" d="M1.15,33.73v-12.51H3.54v4.51c.74-.84,1.61-1.26,2.62-1.26,1.1,0,2.01,.4,2.73,1.2s1.08,1.95,1.08,3.44-.37,2.74-1.1,3.58-1.63,1.25-2.68,1.25c-.52,0-1.03-.13-1.53-.39s-.93-.64-1.3-1.15v1.33H1.15Zm2.37-4.73c0,.94,.15,1.63,.44,2.08,.41,.64,.96,.96,1.65,.96,.53,0,.98-.23,1.35-.68,.37-.45,.56-1.17,.56-2.14,0-1.04-.19-1.78-.56-2.24-.37-.46-.85-.69-1.44-.69s-1.05,.22-1.43,.67-.57,1.12-.57,2.04Z"/>
    <path class="cls-3" d="M10.76,24.66h2.54l2.16,6.44,2.11-6.44h2.48l-3.19,8.72-.57,1.58c-.21,.53-.41,.93-.6,1.21s-.41,.5-.65,.68c-.25,.17-.55,.31-.91,.41-.36,.1-.77,.15-1.22,.15s-.91-.05-1.35-.15l-.21-1.88c.37,.07,.71,.11,1.01,.11,.56,0,.97-.16,1.23-.49s.47-.74,.61-1.25l-3.44-9.09Z"/>
    <path class="cls-3" d="M25.8,29.66l2.45-.24c.15,.83,.45,1.43,.9,1.82,.45,.39,1.06,.58,1.82,.58,.81,0,1.42-.17,1.83-.52s.62-.75,.62-1.21c0-.3-.09-.55-.26-.76-.17-.21-.48-.39-.91-.54-.29-.1-.97-.28-2.02-.55-1.35-.34-2.3-.75-2.84-1.24-.77-.69-1.15-1.53-1.15-2.52,0-.64,.18-1.23,.54-1.79s.88-.98,1.56-1.27,1.5-.44,2.45-.44c1.57,0,2.74,.34,3.53,1.03s1.21,1.61,1.25,2.76l-2.52,.11c-.11-.64-.34-1.11-.69-1.39-.35-.28-.89-.42-1.59-.42s-1.3,.15-1.72,.45c-.27,.19-.4,.45-.4,.78,0,.3,.12,.55,.37,.76,.32,.27,1.09,.55,2.31,.84,1.23,.29,2.13,.59,2.72,.9,.59,.31,1.05,.73,1.38,1.27,.33,.54,.5,1.2,.5,1.99,0,.72-.2,1.39-.6,2.01s-.96,1.09-1.68,1.4c-.73,.3-1.63,.46-2.71,.46-1.58,0-2.79-.37-3.63-1.1-.85-.73-1.35-1.8-1.51-3.2Z"/>
    <path class="cls-3" d="M43.99,33.73v-1.36c-.33,.48-.76,.86-1.3,1.14-.54,.28-1.1,.42-1.7,.42s-1.15-.13-1.63-.4c-.48-.27-.83-.64-1.05-1.13-.22-.48-.32-1.15-.32-2.01v-5.74h2.39v4.17c0,1.27,.04,2.06,.13,2.34,.09,.29,.25,.51,.48,.68,.23,.17,.53,.25,.88,.25,.41,0,.77-.11,1.1-.34,.32-.22,.54-.5,.66-.84s.18-1.15,.18-2.45v-3.82h2.39v9.06h-2.22Z"/>
    <path class="cls-3" d="M48.59,33.73v-12.51h2.39v4.51c.74-.84,1.61-1.26,2.62-1.26,1.1,0,2.01,.4,2.73,1.2,.72,.8,1.08,1.95,1.08,3.44s-.37,2.74-1.1,3.58c-.74,.84-1.63,1.25-2.68,1.25-.52,0-1.03-.13-1.53-.39s-.93-.64-1.3-1.15v1.33h-2.22Zm2.37-4.73c0,.94,.15,1.63,.44,2.08,.41,.64,.96,.96,1.65,.96,.53,0,.98-.23,1.35-.68,.37-.45,.56-1.17,.56-2.14,0-1.04-.19-1.78-.56-2.24-.37-.46-.85-.69-1.44-.69s-1.05,.22-1.43,.67-.57,1.12-.57,2.04Z"/>
    <path class="cls-3" d="M61.01,33.73l-2.86-9.06h2.32l1.69,5.94,1.56-5.94h2.31l1.51,5.94,1.73-5.94h2.36l-2.9,9.06h-2.3l-1.56-5.83-1.53,5.83h-2.32Z"/>
    <path class="cls-3" d="M74.67,27.43l-2.17-.39c.24-.88,.66-1.52,1.26-1.95,.6-.42,1.48-.63,2.65-.63,1.07,0,1.86,.13,2.38,.38s.89,.57,1.1,.96c.21,.39,.32,1.11,.32,2.15l-.03,2.8c0,.8,.04,1.38,.11,1.76,.08,.38,.22,.78,.43,1.22h-2.37c-.06-.16-.14-.4-.23-.71-.04-.14-.07-.24-.08-.28-.41,.4-.84,.7-1.31,.9-.47,.2-.96,.3-1.49,.3-.93,0-1.66-.25-2.2-.76s-.8-1.15-.8-1.92c0-.51,.12-.97,.37-1.37,.24-.4,.58-.71,1.02-.92s1.07-.4,1.9-.56c1.12-.21,1.89-.41,2.32-.59v-.24c0-.46-.11-.79-.34-.99s-.66-.29-1.28-.29c-.43,0-.76,.08-1,.25s-.43,.46-.58,.88Zm3.2,1.95c-.31,.1-.79,.22-1.45,.37-.66,.14-1.1,.28-1.3,.42-.31,.22-.47,.5-.47,.85s.12,.63,.37,.87c.25,.24,.57,.37,.95,.37,.43,0,.84-.14,1.23-.43,.29-.22,.48-.48,.57-.79,.06-.21,.09-.59,.09-1.17v-.48Z"/>
    <path class="cls-3" d="M81.44,24.66h2.54l2.16,6.44,2.11-6.44h2.48l-3.19,8.72-.57,1.58c-.21,.53-.41,.93-.6,1.21-.19,.28-.41,.5-.66,.68-.25,.17-.55,.31-.91,.41s-.77,.15-1.22,.15-.91-.05-1.35-.15l-.21-1.88c.38,.07,.71,.11,1.01,.11,.56,0,.97-.16,1.23-.49s.47-.74,.61-1.25l-3.44-9.09Z"/>
    <path class="cls-3" d="M99.84,31.93v-3.25h-3.27v-2.24h3.27v-3.25h2.18v3.25h3.28v2.24h-3.28v3.25h-2.18Z"/>
    <path class="cls-3" d="M113.9,33.73l-2.98-12.51h2.58l1.88,8.6,2.28-8.6h3l2.19,8.74,1.91-8.74h2.54l-3.03,12.51h-2.67l-2.48-9.35-2.48,9.35h-2.73Z"/>
    <path class="cls-3" d="M129.7,27.43l-2.17-.39c.24-.88,.66-1.52,1.26-1.95,.6-.42,1.48-.63,2.65-.63,1.07,0,1.86,.13,2.38,.38s.89,.57,1.1,.96c.21,.39,.32,1.11,.32,2.15l-.03,2.8c0,.8,.04,1.38,.11,1.76,.08,.38,.22,.78,.43,1.22h-2.37c-.06-.16-.14-.4-.23-.71-.04-.14-.07-.24-.08-.28-.41,.4-.84,.7-1.31,.9-.47,.2-.96,.3-1.49,.3-.93,0-1.66-.25-2.2-.76s-.8-1.15-.8-1.92c0-.51,.12-.97,.37-1.37,.24-.4,.58-.71,1.02-.92s1.07-.4,1.9-.56c1.12-.21,1.89-.41,2.32-.59v-.24c0-.46-.11-.79-.34-.99s-.66-.29-1.28-.29c-.43,0-.76,.08-1,.25s-.43,.46-.58,.88Zm3.2,1.95c-.31,.1-.79,.22-1.45,.37-.66,.14-1.1,.28-1.3,.42-.31,.22-.47,.5-.47,.85s.12,.63,.37,.87c.25,.24,.57,.37,.95,.37,.43,0,.84-.14,1.23-.43,.29-.22,.48-.48,.57-.79,.06-.21,.09-.59,.09-1.17v-.48Z"/>
    <path class="cls-3" d="M137.61,33.73v-12.51h2.39v12.51h-2.39Z"/>
    <path class="cls-3" d="M142.36,33.73v-12.51h2.39v6.64l2.8-3.19h2.94l-3.09,3.31,3.31,5.75h-2.58l-2.27-4.07-1.12,1.17v2.9h-2.39Z"/>
    <path class="cls-3" d="M152.14,23.43v-2.22h2.39v2.22h-2.39Zm0,10.29v-9.06h2.39v9.06h-2.39Z"/>
    <path class="cls-3" d="M165.19,33.73h-2.39v-4.63c0-.98-.05-1.61-.15-1.9-.1-.29-.27-.51-.5-.67-.23-.16-.51-.24-.83-.24-.41,0-.79,.11-1.11,.34s-.55,.53-.68,.9c-.12,.38-.18,1.07-.18,2.08v4.11h-2.39v-9.06h2.22v1.33c.79-1.02,1.78-1.54,2.98-1.54,.53,0,1.01,.1,1.45,.29,.44,.19,.77,.43,.99,.73,.22,.3,.38,.63,.47,1.01s.13,.91,.13,1.61v5.63Z"/>
    <path class="cls-3" d="M167.4,34.32l2.73,.33c.05,.32,.15,.54,.32,.66,.23,.17,.58,.26,1.07,.26,.62,0,1.09-.09,1.4-.28,.21-.13,.37-.33,.48-.61,.07-.2,.11-.57,.11-1.1v-1.32c-.71,.98-1.62,1.47-2.71,1.47-1.21,0-2.18-.52-2.88-1.54-.56-.81-.83-1.83-.83-3.04,0-1.52,.36-2.68,1.09-3.48s1.63-1.2,2.72-1.2,2.04,.49,2.77,1.48v-1.27h2.24v8.13c0,1.07-.09,1.87-.26,2.4-.18,.53-.42,.94-.74,1.25-.32,.3-.74,.54-1.27,.71-.53,.17-1.2,.26-2.01,.26-1.53,0-2.62-.26-3.26-.79-.64-.53-.96-1.19-.96-2,0-.08,0-.18,0-.29Zm2.14-5.32c0,.96,.19,1.67,.56,2.11,.37,.45,.83,.67,1.37,.67,.58,0,1.08-.23,1.48-.69,.4-.46,.6-1.14,.6-2.04s-.19-1.64-.58-2.09-.87-.68-1.46-.68-1.04,.22-1.42,.67c-.37,.45-.56,1.13-.56,2.04Z"/>
  </g>
</svg>