<?xml version="1.0" encoding="utf-8"?>
<!-- Generator: Adobe Illustrator 26.5.0, SVG Export Plug-In . SVG Version: 6.00 Build 0)  -->
<svg version="1.1" id="Layer_1" xmlns="http://www.w3.org/2000/svg" xmlns:xlink="http://www.w3.org/1999/xlink" x="0px" y="0px"
	 viewBox="0 0 173.4 60.2" style="enable-background:new 0 0 173.4 60.2;" xml:space="preserve">
<style type="text/css">
	.st0{display:none;fill:#384152;}
	.st1{clip-path:url(#SVGID_00000158010669572335383360000012898395886207726240_);}
	.st2{fill:#F1EEF7;stroke:#ABABAB;stroke-miterlimit:10;}
	.st3{fill:#BDC9E0;stroke:#ABABAB;stroke-miterlimit:10;}
	.st4{fill:#74A9CE;stroke:#ABABAB;stroke-miterlimit:10;}
	.st5{fill:#0571B0;stroke:#ABABAB;stroke-miterlimit:10;}
	.st6{enable-background:new    ;}
	.st7{fill:#FFFFFF;}
</style>
<path class="st0" d="M249.6,89h-308V-75.1h308V89z"/>
<g>
	<defs>
		<rect id="SVGID_1_" y="14.2" width="231.4" height="46"/>
	</defs>
	<clipPath id="SVGID_00000173853217431670056540000016421105742230163632_">
		<use xlink:href="#SVGID_1_"  style="overflow:visible;"/>
	</clipPath>
	<g style="clip-path:url(#SVGID_00000173853217431670056540000016421105742230163632_);">
		<circle class="st2" cx="25" cy="14.9" r="140"/>
		<circle class="st3" cx="25" cy="14.9" r="100"/>
		<circle class="st4" cx="25" cy="14.9" r="60"/>
		<circle class="st5" cx="25" cy="14.9" r="20"/>
	</g>
</g>
<g class="st6">
	<path class="st7" d="M23.2,10.8h-1.6V4.5c-0.6,0.6-1.3,1-2.1,1.2V4.3c0.4-0.1,0.9-0.4,1.4-0.8s0.8-0.9,1-1.4h1.3V10.8z"/>
	<path class="st7" d="M28.4,2.1c0.8,0,1.5,0.3,2,0.9c0.6,0.7,0.8,1.9,0.8,3.5c0,1.6-0.3,2.8-0.8,3.5c-0.5,0.6-1.1,0.9-1.9,0.9
		c-0.8,0-1.5-0.3-2-1s-0.8-1.8-0.8-3.4c0-1.6,0.3-2.8,0.8-3.5C27,2.4,27.6,2.1,28.4,2.1z M28.4,3.5c-0.2,0-0.4,0.1-0.5,0.2
		S27.6,4,27.6,4.4c-0.1,0.4-0.2,1.1-0.2,2.2s0.1,1.7,0.2,2.1s0.2,0.6,0.4,0.8s0.3,0.2,0.5,0.2s0.4-0.1,0.5-0.2s0.3-0.4,0.4-0.7
		c0.1-0.4,0.2-1.1,0.2-2.1s-0.1-1.7-0.2-2.1S29.1,3.8,29,3.7S28.6,3.5,28.4,3.5z"/>
</g>
<g class="st6">
	<path class="st7" d="M63.7,9.2v1.5h-5.8c0.1-0.6,0.2-1.1,0.6-1.6s0.9-1.2,1.9-2.1c0.7-0.7,1.2-1.2,1.4-1.4C61.9,5.3,62,5,62,4.6
		c0-0.4-0.1-0.6-0.3-0.8s-0.5-0.3-0.8-0.3c-0.3,0-0.6,0.1-0.8,0.3s-0.3,0.6-0.4,1l-1.6-0.2c0.1-0.9,0.4-1.6,0.9-2s1.2-0.6,1.9-0.6
		c0.8,0,1.5,0.2,2,0.7s0.7,1,0.7,1.7c0,0.4-0.1,0.8-0.2,1.1s-0.4,0.7-0.7,1.1c-0.2,0.3-0.6,0.6-1.1,1.1s-0.8,0.8-1,0.9
		s-0.3,0.3-0.3,0.5H63.7z"/>
	<path class="st7" d="M67.5,2.1c0.8,0,1.5,0.3,2,0.9c0.6,0.7,0.8,1.9,0.8,3.5c0,1.6-0.3,2.8-0.8,3.5c-0.5,0.6-1.1,0.9-1.9,0.9
		c-0.8,0-1.5-0.3-2-1s-0.8-1.8-0.8-3.4c0-1.6,0.3-2.8,0.8-3.5C66.1,2.4,66.7,2.1,67.5,2.1z M67.5,3.5c-0.2,0-0.4,0.1-0.5,0.2
		S66.7,4,66.7,4.4c-0.1,0.4-0.2,1.1-0.2,2.2s0.1,1.7,0.2,2.1s0.2,0.6,0.4,0.8s0.3,0.2,0.5,0.2s0.4-0.1,0.5-0.2s0.3-0.4,0.4-0.7
		c0.1-0.4,0.2-1.1,0.2-2.1s-0.1-1.7-0.2-2.1s-0.2-0.6-0.4-0.8S67.7,3.5,67.5,3.5z"/>
</g>
<g class="st6">
	<path class="st7" d="M98,8.5l1.6-0.2c0.1,0.4,0.2,0.7,0.4,0.9s0.5,0.3,0.8,0.3c0.3,0,0.6-0.1,0.9-0.4s0.3-0.6,0.3-1
		c0-0.4-0.1-0.7-0.3-1s-0.5-0.4-0.8-0.4c-0.2,0-0.5,0-0.8,0.1l0.2-1.3c0.4,0,0.8-0.1,1-0.3s0.4-0.5,0.4-0.8c0-0.3-0.1-0.5-0.3-0.7
		s-0.4-0.3-0.7-0.3c-0.3,0-0.5,0.1-0.7,0.3s-0.3,0.5-0.4,0.9l-1.5-0.3c0.1-0.5,0.3-0.9,0.5-1.2s0.5-0.6,0.9-0.7s0.8-0.3,1.3-0.3
		c0.8,0,1.5,0.3,1.9,0.8c0.4,0.4,0.6,0.9,0.6,1.4c0,0.8-0.4,1.4-1.2,1.8c0.5,0.1,0.9,0.3,1.2,0.7s0.4,0.8,0.4,1.3
		c0,0.8-0.3,1.4-0.8,1.9s-1.2,0.8-2.1,0.8c-0.8,0-1.4-0.2-1.9-0.7S98.1,9.2,98,8.5z"/>
	<path class="st7" d="M107.5,2.1c0.8,0,1.5,0.3,2,0.9c0.6,0.7,0.8,1.9,0.8,3.5c0,1.6-0.3,2.8-0.8,3.5c-0.5,0.6-1.1,0.9-1.9,0.9
		c-0.8,0-1.5-0.3-2-1s-0.8-1.8-0.8-3.4c0-1.6,0.3-2.8,0.8-3.5C106,2.4,106.7,2.1,107.5,2.1z M107.5,3.5c-0.2,0-0.4,0.1-0.5,0.2
		s-0.3,0.4-0.4,0.7c-0.1,0.4-0.2,1.1-0.2,2.2s0.1,1.7,0.2,2.1s0.2,0.6,0.4,0.8s0.3,0.2,0.5,0.2s0.4-0.1,0.5-0.2s0.3-0.4,0.4-0.7
		c0.1-0.4,0.2-1.1,0.2-2.1s-0.1-1.7-0.2-2.1s-0.2-0.6-0.4-0.8S107.7,3.5,107.5,3.5z"/>
</g>
<g class="st6">
	<path class="st7" d="M139.1,10.9V9.2h-3.5V7.7l3.7-5.5h1.4v5.4h1.1v1.4h-1.1v1.7H139.1z M139.1,7.7V4.8l-2,2.9H139.1z"/>
	<path class="st7" d="M145.3,2.3c0.8,0,1.5,0.3,2,0.9c0.6,0.7,0.8,1.9,0.8,3.5c0,1.6-0.3,2.8-0.8,3.5c-0.5,0.6-1.1,0.9-1.9,0.9
		c-0.8,0-1.5-0.3-2-1s-0.8-1.8-0.8-3.4c0-1.6,0.3-2.8,0.8-3.5C143.9,2.6,144.5,2.3,145.3,2.3z M145.3,3.6c-0.2,0-0.4,0.1-0.5,0.2
		s-0.3,0.4-0.4,0.7c-0.1,0.4-0.2,1.1-0.2,2.2s0.1,1.7,0.2,2.1c0.1,0.4,0.2,0.6,0.4,0.8s0.3,0.2,0.5,0.2s0.4-0.1,0.5-0.2
		s0.3-0.4,0.4-0.7c0.1-0.4,0.2-1.1,0.2-2.1s-0.1-1.7-0.2-2.1S146,4,145.9,3.8S145.5,3.6,145.3,3.6z"/>
	<path class="st7" d="M152.8,4.7h1.5v0.8c0.5-0.7,1.2-1,1.9-1c0.4,0,0.7,0.1,1,0.2s0.5,0.4,0.7,0.7c0.3-0.3,0.6-0.6,0.9-0.7
		s0.7-0.2,1-0.2c0.5,0,0.8,0.1,1.2,0.3s0.6,0.5,0.7,0.8c0.1,0.3,0.2,0.7,0.2,1.3v4h-1.6V7.3c0-0.6-0.1-1-0.2-1.2
		c-0.2-0.2-0.4-0.4-0.7-0.4c-0.2,0-0.4,0.1-0.7,0.2s-0.3,0.3-0.4,0.6s-0.1,0.7-0.1,1.3v3h-1.6V7.5c0-0.6,0-1-0.1-1.2
		s-0.1-0.3-0.3-0.4s-0.3-0.1-0.5-0.1c-0.3,0-0.5,0.1-0.7,0.2s-0.3,0.3-0.4,0.6s-0.1,0.7-0.1,1.3v3h-1.6V4.7z"/>
	<path class="st7" d="M163.6,3.8V2.3h1.6v1.5H163.6z M163.6,10.9V4.7h1.6v6.2H163.6z"/>
	<path class="st7" d="M172.6,10.9h-1.6V7.7c0-0.7,0-1.1-0.1-1.3s-0.2-0.4-0.3-0.5s-0.3-0.2-0.6-0.2c-0.3,0-0.5,0.1-0.8,0.2
		s-0.4,0.4-0.5,0.6s-0.1,0.7-0.1,1.4v2.8h-1.6V4.7h1.5v0.9c0.5-0.7,1.2-1.1,2.1-1.1c0.4,0,0.7,0.1,1,0.2s0.5,0.3,0.7,0.5
		s0.3,0.4,0.3,0.7s0.1,0.6,0.1,1.1V10.9z"/>
</g>
</svg>
